<svg version="1.1" id="Layer_1" xmlns="http://www.w3.org/2000/svg" xmlns:xlink="http://www.w3.org/1999/xlink" x="0px" y="0px"
	 width="100%" viewBox="0 0 500 500" enable-background="new 0 0 500 500" xml:space="preserve">
<path fill="#FFFFFF" opacity="1.000000" stroke="none" 
	d="
M316.000000,501.000000 
	C210.666687,501.000000 105.833382,501.000000 1.000056,501.000000 
	C1.000037,334.333405 1.000037,167.666794 1.000019,1.000146 
	C167.666565,1.000097 334.333130,1.000097 500.999756,1.000049 
	C500.999847,167.666519 500.999847,334.333038 500.999939,500.999786 
	C439.500000,501.000000 378.000000,501.000000 316.000000,501.000000 
M305.754120,319.357788 
	C303.765137,317.786377 301.776154,316.214966 299.466492,314.390167 
	C299.466492,318.387634 299.466492,321.606262 299.466492,324.824890 
	C299.768829,324.821045 300.071198,324.817230 300.373535,324.813385 
	C300.592346,322.821625 300.811127,320.829865 301.083221,318.352905 
	C302.669464,319.376953 303.851654,320.140137 305.490540,321.425720 
	C307.080475,322.714752 308.670410,324.003815 310.546600,325.524933 
	C310.546600,321.491852 310.546600,318.308136 310.546600,315.124420 
	C310.260986,315.116241 309.975342,315.108063 309.689728,315.099884 
	C309.369049,317.181366 309.048370,319.262848 308.697754,321.538666 
	C307.508972,320.812500 306.805328,320.382660 305.754120,319.357788 
M348.913300,215.379211 
	C348.255280,214.959854 347.597290,214.540497 346.314972,213.715240 
	C329.842957,210.878357 313.354828,208.129745 296.914032,205.122192 
	C293.998260,204.588791 290.804626,203.571655 288.547516,201.766998 
	C274.510193,190.543533 259.561584,181.804016 240.823120,181.925034 
	C239.462418,181.933823 238.095245,180.940125 236.731079,180.412506 
	C236.833771,180.011002 236.936462,179.609482 237.039154,179.207977 
	C238.122086,179.207977 239.477631,179.622467 240.233536,179.125275 
	C242.036636,177.939331 243.556747,176.323120 245.191162,174.880707 
	C243.618439,173.327042 242.173645,170.626236 240.449127,170.433945 
	C235.187820,169.847305 229.791641,169.929062 224.508087,170.410721 
	C222.909103,170.556473 220.717575,172.628677 220.266052,174.232040 
	C219.913666,175.483368 221.740051,177.440979 222.793701,178.948074 
	C223.193039,179.519272 224.139725,179.707809 224.836914,180.070770 
	C222.849884,181.136841 221.077835,181.057281 219.314835,181.149857 
	C208.529129,181.716217 197.748779,182.394852 186.959641,182.880463 
	C182.192780,183.095016 180.202179,185.749039 179.759033,190.100784 
	C179.157623,196.006958 178.566055,201.914124 177.933365,208.186630 
	C176.286758,208.186630 174.825119,208.188126 173.363480,208.186386 
	C153.052811,208.162231 132.736969,208.383194 112.434845,207.954544 
	C106.784859,207.835251 104.803627,210.157730 104.034615,215.903992 
	C104.506149,220.831558 104.977684,225.759140 104.966995,230.842529 
	C103.829437,235.310806 102.691887,239.779083 101.438736,244.701416 
	C113.189835,246.019196 124.002396,247.231735 134.966232,248.461227 
	C134.627151,251.997696 134.323074,255.169052 134.018997,258.340393 
	C134.437958,258.542603 134.856918,258.744781 135.275864,258.946960 
	C136.737259,257.402100 138.198654,255.857208 139.068802,254.937363 
	C142.323761,259.299957 145.744263,263.884430 149.601730,269.054565 
	C139.854919,269.054565 130.152191,269.054565 120.449455,269.054565 
	C120.465134,269.555115 120.480804,270.055664 120.496483,270.556213 
	C193.939896,272.520477 267.388031,272.371277 340.871582,270.694519 
	C340.011505,270.927338 339.064331,271.318237 338.239685,271.140442 
	C335.397644,270.527832 332.631714,269.304108 329.775391,269.073669 
	C324.974060,268.686340 320.124664,268.923859 315.297424,268.814056 
	C313.162415,268.765472 311.032135,268.510559 310.054291,268.436646 
	C313.317047,263.420044 316.490051,258.541351 319.996613,253.149872 
	C326.396606,252.467575 334.164520,252.446045 341.431854,250.527893 
	C345.123016,249.553650 348.841705,245.688141 350.836090,242.161560 
	C352.665588,238.926529 352.250366,234.396729 352.661987,230.420609 
	C352.708038,229.975967 351.697021,229.421875 351.353119,228.189362 
	C350.591187,224.115921 349.829254,220.042496 348.913300,215.379211 
M361.864441,202.499985 
	C361.864441,223.238190 361.864441,243.976395 361.864441,264.590485 
	C365.471375,264.590485 368.226868,264.590485 370.970337,264.590485 
	C371.129120,263.817169 371.314575,263.335114 371.314789,262.852997 
	C371.332581,222.524780 371.300903,182.196487 371.394775,141.868469 
	C371.404114,137.849304 369.782440,136.844559 365.999390,136.848602 
	C286.342834,136.934021 206.686127,136.935013 127.029587,136.848648 
	C123.109734,136.844406 121.429756,138.116852 121.858269,142.036102 
	C122.030556,143.611786 122.038574,145.205429 122.125328,146.866837 
	C202.166550,146.866837 281.746918,146.866837 361.864410,146.866837 
	C361.864410,165.257904 361.864410,183.378937 361.864441,202.499985 
M160.989487,348.371979 
	C187.588654,356.295502 214.152817,364.340942 240.828293,371.998627 
	C244.435837,373.034241 248.815353,372.931152 252.471252,371.966949 
	C265.161285,368.620239 277.693329,364.672852 290.279266,360.933167 
	C315.132263,353.548645 340.002716,346.220703 364.796936,338.643555 
	C367.161804,337.920837 370.621918,335.807251 370.854034,333.991608 
	C371.622009,327.985077 371.143768,321.819183 371.143768,315.692749 
	C367.868927,315.692749 365.096222,315.692749 361.869781,315.692749 
	C361.869781,318.585999 361.592133,321.253479 361.933960,323.839081 
	C362.465851,327.862457 360.958038,329.620087 357.016846,330.763824 
	C321.422211,341.093689 285.894684,351.654755 250.326233,362.075562 
	C248.491318,362.613159 246.286224,363.094757 244.550827,362.586700 
	C207.864624,351.846344 171.211761,340.991241 134.607193,329.976379 
	C133.273788,329.575165 131.803314,327.418518 131.601471,325.917908 
	C131.150208,322.563080 131.460342,319.105804 131.460342,315.703461 
	C127.844978,315.703461 125.073036,315.703461 121.877548,315.703461 
	C121.877548,320.782043 122.135414,325.597809 121.803688,330.372620 
	C121.483971,334.974579 123.176682,337.353455 127.687683,338.585449 
	C138.587738,341.562286 149.382660,344.924072 160.989487,348.371979 
M310.060883,303.997620 
	C310.430634,303.366577 311.112793,302.739777 311.121368,302.103851 
	C311.200409,296.251434 311.181030,290.397308 311.152527,284.543884 
	C311.134583,280.857513 309.333618,278.195343 305.642670,278.073700 
	C297.221313,277.796265 288.784546,277.986115 280.287750,277.986115 
	C280.287750,286.966125 280.287750,295.393585 280.287750,303.834106 
	C281.668945,303.834106 282.804688,303.834106 284.274536,303.834106 
	C284.274536,300.859039 284.274536,298.062286 284.274536,294.698944 
	C290.390411,294.698944 296.194794,294.889862 301.979156,294.632141 
	C305.865448,294.459015 307.453247,295.662384 307.132996,299.728973 
	C307.025208,301.097504 308.470917,302.588348 310.060883,303.997620 
M204.294785,282.042572 
	C205.930222,282.042572 207.565659,282.042572 209.201096,282.042572 
	C209.527359,281.606018 209.853622,281.169464 210.179901,280.732941 
	C209.118179,279.805145 208.076324,278.100372 206.991592,278.072632 
	C198.361755,277.851959 189.723785,277.949615 180.890442,277.949615 
	C180.890442,286.748566 180.890442,295.192719 180.890442,303.764343 
	C190.498489,303.764343 199.916290,303.764343 209.299484,303.764343 
	C210.524323,300.493988 209.077133,299.836060 206.329529,299.875122 
	C199.238556,299.975861 192.145218,299.908875 185.105713,299.908875 
	C185.105713,297.290924 185.105713,295.353455 185.105713,292.918335 
	C192.402130,292.918335 199.483704,292.918335 206.565262,292.918335 
	C206.803192,292.379425 207.041122,291.840485 207.279037,291.301575 
	C206.084641,290.510925 204.914642,289.083984 203.691696,289.037048 
	C197.576767,288.802399 191.447968,288.929657 185.162750,288.929657 
	C185.162750,286.447906 185.162750,284.405701 185.162750,282.042542 
	C191.410385,282.042542 197.378067,282.042542 204.294785,282.042572 
M224.537659,277.956146 
	C221.763336,277.956146 218.988998,277.956146 216.226151,277.956146 
	C216.226151,286.922089 216.226151,295.319519 216.226151,303.708557 
	C225.935242,303.708557 235.351593,303.708557 244.575821,303.708557 
	C245.831726,300.136353 243.967560,299.852234 241.389786,299.885956 
	C234.307907,299.978577 227.224045,299.917908 220.259857,299.917908 
	C220.259857,297.237305 220.259857,295.299194 220.259857,293.014984 
	C226.628159,293.014984 232.763214,292.893677 238.890152,293.064148 
	C242.146454,293.154785 242.451141,291.771484 241.446274,288.779724 
	C234.351135,288.779724 227.268005,288.779724 220.220764,288.779724 
	C220.220764,286.357056 220.220764,284.414276 220.220764,282.033569 
	C227.539398,282.033569 234.664871,281.925201 241.784409,282.083405 
	C244.924469,282.153137 245.522171,280.960480 244.427353,277.956146 
	C238.137650,277.956146 231.833939,277.956146 224.537659,277.956146 
M340.507874,286.942413 
	C338.838074,284.469971 337.381378,281.801147 335.382416,279.632019 
	C334.686218,278.876556 331.794159,278.747040 331.355835,279.363434 
	C325.714661,287.296356 320.336243,295.416107 314.891296,303.488586 
	C317.203033,303.828339 319.805908,303.658447 320.402618,302.476074 
	C322.576294,298.168732 326.059998,298.058868 330.018799,298.280792 
	C333.161804,298.457001 336.378174,297.961334 339.455414,298.443756 
	C341.439972,298.754852 343.248840,300.263885 345.105499,301.291840 
	C346.964935,302.321350 348.785950,303.420197 350.623810,304.488617 
	C350.902893,304.046600 351.181976,303.604614 351.461060,303.162598 
	C347.950195,297.950592 344.439331,292.738617 340.507874,286.942413 
M384.891998,300.316071 
	C385.374207,298.989380 385.856384,297.662689 386.338593,296.335999 
	C386.040436,296.023743 385.742249,295.711517 385.444092,295.399261 
	C384.226379,296.044403 382.999115,296.672302 381.793335,297.339020 
	C380.283447,298.173767 378.839630,299.652924 377.282074,299.776062 
	C372.983948,300.115875 368.590912,300.275787 364.340607,299.712799 
	C362.568848,299.478119 360.040009,297.474030 359.655334,295.848541 
	C358.910583,292.701599 359.216309,289.229279 359.559509,285.941132 
	C359.688416,284.705872 361.206421,282.557373 361.964020,282.611328 
	C368.768372,283.095612 376.342072,278.610687 382.273132,285.557953 
	C382.870972,286.258209 384.637665,285.960571 386.289215,286.183807 
	C385.486572,280.785828 382.757141,278.176514 377.974274,277.999268 
	C373.156921,277.820770 368.323242,277.825592 363.505188,277.993805 
	C358.317566,278.174866 355.374420,281.547546 355.134857,287.183502 
	C354.644440,298.720306 356.510681,303.019928 362.427094,303.931732 
	C363.079926,304.032349 363.754791,304.009491 364.419495,304.010529 
	C368.578125,304.016998 372.781708,304.381561 376.879120,303.880768 
	C379.476685,303.563354 381.916229,301.952850 384.891998,300.316071 
M116.263145,297.352844 
	C116.263145,299.474640 116.263145,301.596436 116.263145,304.052338 
	C118.010216,303.890289 119.219116,303.778137 120.742157,303.636841 
	C120.742157,299.984558 120.742157,296.720245 120.742157,292.922302 
	C128.135239,292.922302 135.190994,292.922302 142.246750,292.922302 
	C142.481766,292.367065 142.716797,291.811859 142.951813,291.256622 
	C141.752853,290.473145 140.577957,289.059479 139.350891,289.012604 
	C133.245407,288.779510 127.126198,288.906158 120.829964,288.906158 
	C120.829964,286.453888 120.829964,284.511658 120.829964,282.019928 
	C129.004440,282.019928 137.053070,282.019928 145.101715,282.019928 
	C145.355713,281.626801 145.609726,281.233704 145.863739,280.840576 
	C145.041321,279.871643 144.237823,278.079803 143.393585,278.060425 
	C134.483093,277.855804 125.566101,277.933746 116.263130,277.933746 
	C116.263130,284.480194 116.263130,290.433746 116.263145,297.352844 
M264.165924,284.803131 
	C265.127686,283.883453 265.963837,282.424438 267.079254,282.164764 
	C268.968597,281.724915 271.046295,281.902649 273.023102,282.072906 
	C276.414276,282.364929 276.343018,280.606293 275.767670,278.280945 
	C266.446381,278.280945 257.402893,278.280945 247.368088,278.280945 
	C250.400146,284.900452 256.226532,280.258392 260.040039,282.815491 
	C260.040039,288.628113 260.137024,294.734314 260.003143,300.835388 
	C259.924683,304.412994 261.481537,304.535034 264.164551,303.394806 
	C264.164551,297.368500 264.164551,291.561066 264.165924,284.803131 
M151.940689,301.324493 
	C152.570724,302.214111 153.181580,303.860779 153.833710,303.877289 
	C161.102188,304.061218 168.377060,303.993317 175.650192,303.993317 
	C175.874527,303.411743 176.098846,302.830170 176.323166,302.248627 
	C175.121796,301.472717 173.948212,300.082764 172.714279,300.026917 
	C167.285141,299.781372 161.838577,299.920929 155.954346,299.920929 
	C155.954346,292.344574 155.954346,285.265472 155.954346,278.221527 
	C154.419235,278.221527 153.344131,278.221527 151.939667,278.221527 
	C151.939667,285.760681 151.939667,293.055695 151.940689,301.324493 
M252.804321,346.380676 
	C253.705032,346.934814 254.605759,347.488922 255.506470,348.043060 
	C252.766235,343.193573 256.633575,341.030273 260.299072,337.674683 
	C254.451492,339.294342 252.100159,336.978973 250.910400,332.454285 
	C250.105484,337.423157 247.198746,338.903778 242.264908,338.570160 
	C247.327942,340.500183 247.363220,344.029022 246.025162,347.786530 
	C248.280701,347.110382 250.194870,346.536591 252.804321,346.380676 
M315.094757,321.300446 
	C315.499176,324.904053 318.001038,325.081329 320.896881,325.163513 
	C324.123535,325.255096 326.803864,325.000580 327.318451,320.208618 
	C325.613983,319.996429 323.897003,319.782684 322.180023,319.568909 
	C322.145966,319.864777 322.111938,320.160614 322.077881,320.456451 
	C323.123749,320.942566 324.169617,321.428650 325.215485,321.914764 
	C325.144379,322.165344 325.073303,322.415924 325.002197,322.666504 
	C322.413086,322.666504 319.823975,322.666504 317.311310,322.666504 
	C317.311310,320.569977 317.311310,318.959717 317.311310,316.574158 
	C320.779327,316.851074 323.958374,317.104919 327.442749,317.383148 
	C324.955261,313.171906 321.057159,314.722168 318.035828,315.163269 
	C316.818665,315.340973 316.052338,318.606506 315.094757,321.300446 
M182.800339,314.762299 
	C179.875046,315.356659 175.503571,312.880676 174.660339,317.869629 
	C174.301453,319.993042 175.109558,323.988739 176.287888,324.373199 
	C179.434875,325.399841 183.320190,326.002502 186.287827,322.286438 
	C178.574860,324.741089 175.870193,323.271027 176.873962,316.649963 
	C180.046341,316.904144 183.285706,317.163666 187.620255,317.510956 
	C185.779266,316.278168 184.672302,315.536896 182.800339,314.762299 
M221.542450,340.780182 
	C221.361862,342.046722 221.181274,343.313293 221.094879,343.919250 
	C223.686646,343.919250 226.148438,343.919250 228.106232,343.919250 
	C228.794846,342.007812 229.677353,339.558105 230.315765,337.786011 
	C228.504379,336.444733 226.337463,334.840179 225.100952,333.924561 
	C222.984741,335.316559 220.962738,336.646606 218.896378,338.005829 
	C219.278519,338.367401 220.194901,339.234528 221.542450,340.780182 
M278.145752,335.440033 
	C277.729156,334.631348 277.312592,333.822632 277.356018,333.906952 
	C275.006775,335.364807 272.923279,336.657745 271.274445,337.680939 
	C272.023407,339.561646 272.995026,342.001556 273.667236,343.689606 
	C276.012848,343.858856 278.417267,344.032349 279.932159,344.141632 
	C280.809631,341.791779 281.703339,339.398468 282.522064,337.205933 
	C281.525574,336.946228 279.982880,336.544159 278.145752,335.440033 
M254.215042,315.596161 
	C250.548431,315.264343 246.881821,314.932526 243.269272,314.605591 
	C243.269272,318.502747 243.269272,321.655792 243.269272,324.808838 
	C244.818939,319.309967 249.082596,321.769257 252.406219,321.321625 
	C252.995041,322.607605 253.546585,323.812225 254.098145,325.016815 
	C254.324982,324.962921 254.551834,324.909027 254.778671,324.855133 
	C254.778671,321.984985 254.778671,319.114807 254.215042,315.596161 
M214.248810,314.847656 
	C212.186569,314.847656 210.124313,314.847656 208.369232,314.847656 
	C208.369232,318.628754 208.369232,321.717651 208.369232,323.744202 
	C210.417831,322.863464 212.256104,321.390350 213.987427,321.506836 
	C216.015213,321.643280 217.949875,323.163666 219.725464,323.990814 
	C220.645462,315.343994 220.585403,315.211884 214.248810,314.847656 
M266.556152,316.934479 
	C265.809113,316.774719 264.607239,316.242615 264.385834,316.513092 
	C262.303772,319.056732 260.389221,321.737488 258.468201,324.322296 
	C262.786469,323.698669 266.625366,323.144257 270.386536,322.601105 
	C269.217407,321.004608 267.961182,319.289154 266.556152,316.934479 
M285.144501,323.073059 
	C282.878662,323.073059 280.612854,323.073059 278.328583,323.073059 
	C278.328583,320.652252 278.328583,318.921021 278.328583,316.825317 
	C281.162506,316.825317 283.667908,316.825317 286.173340,316.825317 
	C286.112183,316.306580 286.051025,315.787872 285.989868,315.269135 
	C282.737518,315.760437 279.313873,315.841461 276.369751,317.070892 
	C275.740601,317.333618 276.249969,323.575043 277.280426,323.917694 
	C279.830872,324.765717 282.986664,323.793182 285.144501,323.073059 
M192.470367,322.896667 
	C195.537369,322.896667 198.604370,322.896667 202.216156,322.896667 
	C200.374313,319.832367 198.806427,317.223877 196.701889,313.722565 
	C194.924103,317.209656 193.679977,319.649994 192.470367,322.896667 
M235.072540,318.789032 
	C236.502853,317.670105 237.933167,316.551147 239.659592,315.200562 
	C235.953262,315.200562 232.395935,315.200562 228.838623,315.200562 
	C228.799881,315.446198 228.761139,315.691833 228.722412,315.937469 
	C230.131958,316.365356 231.541519,316.793243 232.797028,317.174377 
	C233.083115,319.973419 233.341385,322.500122 233.599640,325.026855 
	C234.089981,324.990387 234.580338,324.953918 235.070679,324.917450 
	C235.070679,323.166595 235.070679,321.415710 235.072540,318.789032 
M116.819397,269.473267 
	C117.230988,269.444183 117.642578,269.415070 118.054161,269.385986 
	C117.734879,269.509949 117.415588,269.633942 116.819397,269.473267 
z"/>
<path fill="#0C0E35" opacity="1.000000" stroke="none" 
	d="
M351.176239,228.918549 
	C351.697021,229.421875 352.708038,229.975967 352.661987,230.420609 
	C352.250366,234.396729 352.665588,238.926529 350.836090,242.161560 
	C348.841705,245.688141 345.123016,249.553650 341.431854,250.527893 
	C334.164520,252.446045 326.396606,252.467575 319.996613,253.149872 
	C316.490051,258.541351 313.317047,263.420044 310.054291,268.436646 
	C311.032135,268.510559 313.162415,268.765472 315.297424,268.814056 
	C320.124664,268.923859 324.974060,268.686340 329.775391,269.073669 
	C332.631714,269.304108 335.397644,270.527832 338.239685,271.140442 
	C339.064331,271.318237 340.011505,270.927338 340.871582,270.694519 
	C267.388031,272.371277 193.939896,272.520477 120.496483,270.556213 
	C120.480804,270.055664 120.465134,269.555115 120.449455,269.054565 
	C130.152191,269.054565 139.854919,269.054565 149.601730,269.054565 
	C145.744263,263.884430 142.323761,259.299957 139.068802,254.937363 
	C138.198654,255.857208 136.737259,257.402100 135.275864,258.946960 
	C134.856918,258.744781 134.437958,258.542603 134.018997,258.340393 
	C134.323074,255.169052 134.627151,251.997696 134.966232,248.461227 
	C124.002396,247.231735 113.189835,246.019196 101.438736,244.701416 
	C102.691887,239.779083 103.829437,235.310806 105.430168,230.893372 
	C108.849152,230.596741 111.804970,230.249237 114.760788,229.901749 
	C113.771957,227.078522 112.878052,224.216751 111.753441,221.448685 
	C111.207809,220.105698 110.477516,218.623413 109.388260,217.767258 
	C107.860718,216.566620 105.920593,215.890900 104.156952,214.990662 
	C104.803627,210.157730 106.784859,207.835251 112.434845,207.954544 
	C132.736969,208.383194 153.052811,208.162231 173.363480,208.186386 
	C174.825119,208.188126 176.286758,208.186630 177.933365,208.186630 
	C178.566055,201.914124 179.157623,196.006958 179.759033,190.100784 
	C180.202179,185.749039 182.192780,183.095016 186.959641,182.880463 
	C197.748779,182.394852 208.529129,181.716217 219.314835,181.149857 
	C221.077835,181.057281 222.849884,181.136841 224.836914,180.070770 
	C224.139725,179.707809 223.193039,179.519272 222.793701,178.948074 
	C221.740051,177.440979 219.913666,175.483368 220.266052,174.232040 
	C220.717575,172.628677 222.909103,170.556473 224.508087,170.410721 
	C229.791641,169.929062 235.187820,169.847305 240.449127,170.433945 
	C242.173645,170.626236 243.618439,173.327042 245.191162,174.880707 
	C243.556747,176.323120 242.036636,177.939331 240.233536,179.125275 
	C239.477631,179.622467 238.122086,179.207977 237.039154,179.207977 
	C236.936462,179.609482 236.833771,180.011002 236.731079,180.412506 
	C238.095245,180.940125 239.462418,181.933823 240.823120,181.925034 
	C259.561584,181.804016 274.510193,190.543533 288.547516,201.766998 
	C290.804626,203.571655 293.998260,204.588791 296.914032,205.122192 
	C313.354828,208.129745 329.842957,210.878357 346.464417,214.220932 
	C345.950500,215.170532 345.257050,216.035431 344.628662,215.990479 
	C340.336853,215.683472 336.059052,215.181442 331.775909,214.750488 
	C329.827423,214.554443 327.877075,214.376999 325.537415,214.074768 
	C318.610016,213.125824 312.072754,212.293259 305.535492,211.460693 
	C305.491272,211.934296 305.447021,212.407883 305.402771,212.881470 
	C309.923645,213.648117 314.444489,214.414780 319.151581,215.388397 
	C319.889648,216.055023 320.441498,216.514694 320.740967,217.144348 
	C323.871765,223.302567 335.163025,227.727875 341.362152,225.427216 
	C341.886353,225.232666 342.204895,224.483978 342.790833,224.376343 
	C343.623505,225.261215 344.284332,225.762466 345.114227,226.560455 
	C346.229156,230.455811 348.419067,230.498047 351.176239,228.918549 
M162.030502,243.710281 
	C162.654770,244.173355 163.279037,244.636429 163.965347,245.802704 
	C164.764694,248.065140 166.337799,250.374557 166.203873,252.580322 
	C165.916412,257.315247 163.281097,258.151642 158.650238,255.500107 
	C158.877502,259.784912 161.544235,262.740356 163.969757,261.395538 
	C169.279419,258.451630 169.361252,248.148285 163.971664,244.285919 
	C163.350937,243.818848 162.730209,243.351791 161.973389,242.331741 
	C161.639420,242.029968 161.305466,241.728180 160.971497,241.426407 
	C160.789612,241.638641 160.607742,241.850891 160.425873,242.063141 
	C160.919128,242.406113 161.412399,242.749069 162.030502,243.710281 
M309.735016,261.014496 
	C309.876221,260.471252 310.017426,259.928040 310.158630,259.384796 
	C309.740936,259.903839 309.323242,260.422852 308.523376,261.229645 
	C308.540283,261.604370 308.557190,261.979126 308.574066,262.353851 
	C308.772736,261.953033 308.971405,261.552216 309.735016,261.014496 
M140.067673,231.352325 
	C139.424438,232.103256 138.781204,232.854172 138.137970,233.605103 
	C138.384521,233.852631 138.631073,234.100159 138.877625,234.347687 
	C139.659958,233.640335 140.442291,232.932968 141.704407,232.068878 
	C141.886826,231.795761 142.069244,231.522644 142.927643,230.980591 
	C149.706116,229.425842 156.484604,227.871109 164.205643,226.100174 
	C155.523422,226.071533 147.365952,223.737900 140.881409,230.909790 
	C140.881409,230.909790 140.705688,230.999283 140.067673,231.352325 
M118.905319,213.966171 
	C121.628571,214.148132 124.351830,214.330093 127.208321,214.456009 
	C127.208321,214.456009 127.371017,214.538071 128.381271,214.906296 
	C142.758011,215.435623 157.134750,215.964951 171.511505,216.494278 
	C171.591385,215.890305 171.671265,215.286316 171.751144,214.682343 
	C168.493195,214.089462 165.235245,213.496582 161.367249,212.342926 
	C146.821182,212.239716 132.275162,212.126572 117.728897,212.069962 
	C117.155006,212.067734 116.579010,212.604370 115.459427,213.199768 
	C116.311142,213.392868 117.162857,213.585968 118.905319,213.966171 
M299.609192,242.262543 
	C300.485291,244.490952 301.361389,246.719360 302.237488,248.947769 
	C302.631714,248.928497 303.025970,248.909210 303.420227,248.889938 
	C303.646027,247.010956 303.871826,245.131989 304.103455,243.244354 
	C305.252777,243.297989 306.402069,243.351624 307.551392,243.405243 
	C304.789673,241.938171 302.505157,236.695099 298.264618,242.068298 
	C295.728973,244.130646 293.193329,246.192993 290.657684,248.255341 
	C290.912781,248.764114 291.167877,249.272873 291.422974,249.781631 
	C293.420166,250.330154 295.417389,250.878677 297.414581,251.427185 
	C297.626038,250.958908 297.837524,250.490631 298.048981,250.022354 
	C294.753632,248.592026 294.352539,246.838516 297.001923,244.566986 
	C297.808685,243.875244 298.346771,242.870102 299.609192,242.262543 
M309.186859,226.928482 
	C298.523071,224.508438 284.178925,227.176300 282.446777,237.492279 
	C283.325867,236.747787 284.041016,236.393890 284.375702,235.818634 
	C286.908997,231.464340 290.699158,228.993515 295.665710,228.756882 
	C300.427429,228.530014 305.210510,228.752396 310.622009,228.898438 
	C310.996033,228.497726 311.370087,228.097015 311.744110,227.696289 
	C311.159088,227.514038 310.574036,227.331772 309.186859,226.928482 
M319.988495,222.943176 
	C320.247253,222.875702 320.506012,222.808243 320.764771,222.740784 
	C320.578674,222.425827 320.392548,222.110855 319.865509,221.167984 
	C309.421753,215.612289 298.498199,216.599854 286.537933,218.109756 
	C298.209991,219.718582 308.859009,221.186417 319.988495,222.943176 
M274.900787,267.982086 
	C280.296600,267.982086 285.692383,267.982086 290.505676,267.982086 
	C287.415161,264.243774 284.287598,260.460663 281.282013,256.825104 
	C281.040833,257.396667 280.644531,258.335754 280.347839,259.038879 
	C278.387085,257.914520 276.753662,256.172119 275.092010,256.144745 
	C245.681732,255.660461 216.268112,255.371597 186.854584,255.113190 
	C185.675797,255.102829 184.122528,255.455948 183.370529,256.240509 
	C179.555649,260.220398 175.947891,264.398804 172.590088,268.147552 
	C175.399414,268.147552 179.212311,268.147552 183.654495,268.682465 
	C184.303223,268.789642 184.951889,268.990143 185.600693,268.990540 
	C213.812668,269.007690 242.024689,269.018158 270.236603,268.972076 
	C271.482910,268.970062 272.728394,268.432312 274.900787,267.982086 
M182.317932,207.700211 
	C183.540588,218.573074 184.677216,229.456696 186.033173,240.312912 
	C186.499176,244.043839 188.619095,246.061401 192.785782,246.092712 
	C218.430817,246.285416 244.075348,246.593384 269.717957,246.996887 
	C273.243042,247.052338 275.086182,245.738281 275.380463,242.315155 
	C276.232483,232.405258 277.400208,222.500443 277.654053,212.573425 
	C277.740204,209.203934 276.385468,204.885040 274.105255,202.540359 
	C267.520966,195.769852 260.325470,189.191498 250.720963,187.136917 
	C230.818283,182.879379 210.696747,184.537521 190.612793,185.731064 
	C186.453659,185.978241 184.624420,188.487091 184.036316,191.941895 
	C183.201569,196.845581 182.891586,201.838593 182.317932,207.700211 
M239.500000,250.970657 
	C219.948196,250.970657 200.396393,250.970657 180.021072,250.970657 
	C184.719650,253.683365 272.887543,254.154465 276.833954,250.972214 
	C263.922241,250.972214 252.211121,250.972214 239.500000,250.970657 
M148.866180,246.346359 
	C149.923935,244.932434 150.981705,243.518524 152.623581,241.323837 
	C146.459473,243.764267 143.479370,250.956360 146.615891,254.214630 
	C146.923584,252.901581 147.200256,251.720825 147.478058,250.535324 
	C149.147537,251.106766 150.546921,251.585770 151.946304,252.064789 
	C152.099380,251.788666 152.252441,251.512558 152.405502,251.236435 
	C151.123627,249.816635 149.841736,248.396820 148.866180,246.346359 
M240.987000,176.918320 
	C241.639252,176.114594 242.291504,175.310867 242.943741,174.507126 
	C242.067581,173.949829 241.231430,173.007660 240.307312,172.911575 
	C238.054718,172.677368 235.761368,172.835251 233.484421,172.835251 
	C233.161438,173.266144 232.838455,173.697037 232.515472,174.127930 
	C233.560242,175.072983 234.462418,176.412552 235.688583,176.855804 
	C237.001694,177.330475 238.619934,176.961121 240.987000,176.918320 
M231.032288,174.483780 
	C228.411087,174.074066 225.789871,173.664352 223.168671,173.254639 
	C223.160568,174.332520 223.152466,175.410385 223.144363,176.488266 
	C225.772720,176.113052 228.401062,175.737839 231.032288,174.483780 
M310.501709,248.670944 
	C309.455872,249.066162 308.410034,249.461380 307.364166,249.856583 
	C307.456512,250.213989 307.548828,250.571381 307.641144,250.928787 
	C309.713135,250.653488 311.785156,250.378189 314.974884,249.954376 
	C312.986237,247.598099 311.584259,245.936905 310.182251,244.275726 
	C309.909088,244.481201 309.635925,244.686676 309.362732,244.892151 
	C309.910614,246.024750 310.458496,247.157349 310.501709,248.670944 
M291.118591,255.604172 
	C292.407501,257.595093 293.696442,259.586029 294.985352,261.576935 
	C295.567596,261.066345 296.149811,260.555756 296.732056,260.045166 
	C294.896301,258.334534 293.060547,256.623932 291.118591,255.604172 
M304.370544,264.450897 
	C302.488129,263.365936 300.605743,262.281006 298.723328,261.196045 
	C298.425781,261.945770 298.128265,262.695526 297.830750,263.445251 
	C299.816132,263.910675 301.801483,264.376099 304.370544,264.450897 
M302.858551,254.067139 
	C303.159058,252.997772 303.459595,251.928406 303.760132,250.859055 
	C302.607788,250.692749 301.455414,250.526443 300.303070,250.360153 
	C300.167145,250.735443 300.031189,251.110733 299.895264,251.486023 
	C300.696472,252.402191 301.497681,253.318359 302.858551,254.067139 
M158.458313,241.308044 
	C156.425934,238.925552 154.779846,239.816132 153.283981,242.326431 
	C154.839874,242.150864 156.395767,241.975311 158.458313,241.308044 
M154.765137,253.651794 
	C155.853928,252.872955 156.942703,252.094116 158.031479,251.315292 
	C157.449921,250.795959 156.868362,250.276627 156.286804,249.757278 
	C155.618927,250.883423 154.951035,252.009567 154.765137,253.651794 
M157.469025,264.355835 
	C156.697815,263.637177 155.926590,262.918518 155.155365,262.199860 
	C154.841644,262.681885 154.527939,263.163910 154.214233,263.645935 
	C155.117432,264.026947 156.020645,264.407959 157.469025,264.355835 
M299.755920,256.893402 
	C298.803986,257.400360 297.852081,257.907318 296.900146,258.414276 
	C297.319977,258.907074 297.739838,259.399841 298.159668,259.892639 
	C298.732697,259.115448 299.305756,258.338257 299.755920,256.893402 
M146.114853,257.513062 
	C146.819962,258.183685 147.525070,258.854340 148.230164,259.524963 
	C148.525070,259.115509 148.819977,258.706024 149.114883,258.296570 
	C148.153290,257.833038 147.191696,257.369537 146.114853,257.513062 
M162.619431,251.209747 
	C161.820374,250.578232 161.021301,249.946701 160.222244,249.315186 
	C160.002747,249.794907 159.783249,250.274628 159.563751,250.754349 
	C160.447037,251.051239 161.330338,251.348129 162.619431,251.209747 
M312.557098,256.903290 
	C312.979095,256.329987 313.401123,255.756668 313.823151,255.183365 
	C313.428680,255.051926 312.711304,254.765076 312.688507,254.812515 
	C312.379547,255.454376 312.167053,256.142700 312.557098,256.903290 
M151.246933,259.101166 
	C151.742401,259.097992 152.237854,259.094849 152.733322,259.091705 
	C152.590195,258.539917 152.447067,257.988129 152.303940,257.436340 
	C151.910583,257.787415 151.517227,258.138519 151.246933,259.101166 
M307.315643,257.466736 
	C306.951752,257.956177 306.587860,258.445618 306.223969,258.935059 
	C306.577545,259.135040 306.931152,259.335022 307.284729,259.534973 
	C307.436584,258.993317 307.588409,258.451660 307.315643,257.466736 
M151.766830,261.921692 
	C151.333801,261.904999 150.900787,261.888306 150.467758,261.871582 
	C150.963821,262.364532 151.459869,262.857483 151.955948,263.350433 
	C152.054520,262.956635 152.153107,262.562805 151.766830,261.921692 
M155.389999,244.205261 
	C155.788254,244.209595 156.186508,244.213928 156.584747,244.218262 
	C156.586380,244.053009 156.599060,243.744110 156.588043,243.743256 
	C156.191589,243.712799 155.792908,243.711060 155.389999,244.205261 
M156.303116,247.419434 
	C156.012939,247.634979 155.722763,247.850525 155.432602,248.066071 
	C155.609680,248.250793 155.786758,248.435501 155.963837,248.620209 
	C156.192276,248.340057 156.420715,248.059921 156.303116,247.419434 
M306.531036,261.730927 
	C306.400543,262.133636 306.248230,262.531525 306.157928,262.943054 
	C306.139862,263.025238 306.358185,263.159302 306.467529,263.269440 
	C306.597931,262.866791 306.728302,262.464172 306.531036,261.730927 
M113.405785,212.465820 
	C113.405785,212.465820 113.524864,212.397125 113.405785,212.465820 
z"/>
<path fill="#FF3838" opacity="1.000000" stroke="none" 
	d="
M361.864441,201.999969 
	C361.864410,183.378937 361.864410,165.257904 361.864410,146.866837 
	C281.746918,146.866837 202.166550,146.866837 122.125328,146.866837 
	C122.038574,145.205429 122.030556,143.611786 121.858269,142.036102 
	C121.429756,138.116852 123.109734,136.844406 127.029587,136.848648 
	C206.686127,136.935013 286.342834,136.934021 365.999390,136.848602 
	C369.782440,136.844559 371.404114,137.849304 371.394775,141.868469 
	C371.300903,182.196487 371.332581,222.524780 371.314789,262.852997 
	C371.314575,263.335114 371.129120,263.817169 370.970337,264.590485 
	C368.226868,264.590485 365.471375,264.590485 361.864441,264.590485 
	C361.864441,243.976395 361.864441,223.238190 361.864441,201.999969 
z"/>
<path fill="#FF3636" opacity="1.000000" stroke="none" 
	d="
M160.604736,348.251343 
	C149.382660,344.924072 138.587738,341.562286 127.687683,338.585449 
	C123.176682,337.353455 121.483971,334.974579 121.803688,330.372620 
	C122.135414,325.597809 121.877548,320.782043 121.877548,315.703461 
	C125.073036,315.703461 127.844978,315.703461 131.460342,315.703461 
	C131.460342,319.105804 131.150208,322.563080 131.601471,325.917908 
	C131.803314,327.418518 133.273788,329.575165 134.607193,329.976379 
	C171.211761,340.991241 207.864624,351.846344 244.550827,362.586700 
	C246.286224,363.094757 248.491318,362.613159 250.326233,362.075562 
	C285.894684,351.654755 321.422211,341.093689 357.016846,330.763824 
	C360.958038,329.620087 362.465851,327.862457 361.933960,323.839081 
	C361.592133,321.253479 361.869781,318.585999 361.869781,315.692749 
	C365.096222,315.692749 367.868927,315.692749 371.143768,315.692749 
	C371.143768,321.819183 371.622009,327.985077 370.854034,333.991608 
	C370.621918,335.807251 367.161804,337.920837 364.796936,338.643555 
	C340.002716,346.220703 315.132263,353.548645 290.279266,360.933167 
	C277.693329,364.672852 265.161285,368.620239 252.471252,371.966949 
	C248.815353,372.931152 244.435837,373.034241 240.828293,371.998627 
	C214.152817,364.340942 187.588654,356.295502 160.604736,348.251343 
z"/>
<path fill="#260FB2" opacity="1.000000" stroke="none" 
	d="
M309.633728,304.010437 
	C308.470917,302.588348 307.025208,301.097504 307.132996,299.728973 
	C307.453247,295.662384 305.865448,294.459015 301.979156,294.632141 
	C296.194794,294.889862 290.390411,294.698944 284.274536,294.698944 
	C284.274536,298.062286 284.274536,300.859039 284.274536,303.834106 
	C282.804688,303.834106 281.668945,303.834106 280.287750,303.834106 
	C280.287750,295.393585 280.287750,286.966125 280.287750,277.986115 
	C288.784546,277.986115 297.221313,277.796265 305.642670,278.073700 
	C309.333618,278.195343 311.134583,280.857513 311.152527,284.543884 
	C311.181030,290.397308 311.200409,296.251434 311.121368,302.103851 
	C311.112793,302.739777 310.430634,303.366577 309.633728,304.010437 
M294.505096,290.341339 
	C297.650299,290.336334 300.860901,290.695007 303.908569,290.147247 
	C305.127258,289.928192 306.501526,287.846100 306.888397,286.371582 
	C307.458221,284.199554 307.054413,282.009674 303.831604,282.040161 
	C297.428833,282.100677 291.025085,282.058075 284.476868,282.058075 
	C284.476868,285.004456 284.476868,287.400940 284.476868,290.341431 
	C287.657837,290.341431 290.591431,290.341431 294.505096,290.341339 
z"/>
<path fill="#1C05AE" opacity="1.000000" stroke="none" 
	d="
M203.820282,282.042542 
	C197.378067,282.042542 191.410385,282.042542 185.162750,282.042542 
	C185.162750,284.405701 185.162750,286.447906 185.162750,288.929657 
	C191.447968,288.929657 197.576767,288.802399 203.691696,289.037048 
	C204.914642,289.083984 206.084641,290.510925 207.279037,291.301575 
	C207.041122,291.840485 206.803192,292.379425 206.565262,292.918335 
	C199.483704,292.918335 192.402130,292.918335 185.105713,292.918335 
	C185.105713,295.353455 185.105713,297.290924 185.105713,299.908875 
	C192.145218,299.908875 199.238556,299.975861 206.329529,299.875122 
	C209.077133,299.836060 210.524323,300.493988 209.299484,303.764343 
	C199.916290,303.764343 190.498489,303.764343 180.890442,303.764343 
	C180.890442,295.192719 180.890442,286.748566 180.890442,277.949615 
	C189.723785,277.949615 198.361755,277.851959 206.991592,278.072632 
	C208.076324,278.100372 209.118179,279.805145 210.179901,280.732941 
	C209.853622,281.169464 209.527359,281.606018 209.201096,282.042572 
	C207.565659,282.042572 205.930222,282.042572 203.820282,282.042542 
z"/>
<path fill="#1901AD" opacity="1.000000" stroke="none" 
	d="
M225.033951,277.956146 
	C231.833939,277.956146 238.137650,277.956146 244.427353,277.956146 
	C245.522171,280.960480 244.924469,282.153137 241.784409,282.083405 
	C234.664871,281.925201 227.539398,282.033569 220.220764,282.033569 
	C220.220764,284.414276 220.220764,286.357056 220.220764,288.779724 
	C227.268005,288.779724 234.351135,288.779724 241.446274,288.779724 
	C242.451141,291.771484 242.146454,293.154785 238.890152,293.064148 
	C232.763214,292.893677 226.628159,293.014984 220.259857,293.014984 
	C220.259857,295.299194 220.259857,297.237305 220.259857,299.917908 
	C227.224045,299.917908 234.307907,299.978577 241.389786,299.885956 
	C243.967560,299.852234 245.831726,300.136353 244.575821,303.708557 
	C235.351593,303.708557 225.935242,303.708557 216.226151,303.708557 
	C216.226151,295.319519 216.226151,286.922089 216.226151,277.956146 
	C218.988998,277.956146 221.763336,277.956146 225.033951,277.956146 
z"/>
<path fill="#230DB1" opacity="1.000000" stroke="none" 
	d="
M340.718170,287.234528 
	C344.439331,292.738617 347.950195,297.950592 351.461060,303.162598 
	C351.181976,303.604614 350.902893,304.046600 350.623810,304.488617 
	C348.785950,303.420197 346.964935,302.321350 345.105499,301.291840 
	C343.248840,300.263885 341.439972,298.754852 339.455414,298.443756 
	C336.378174,297.961334 333.161804,298.457001 330.018799,298.280792 
	C326.059998,298.058868 322.576294,298.168732 320.402618,302.476074 
	C319.805908,303.658447 317.203033,303.828339 314.891296,303.488586 
	C320.336243,295.416107 325.714661,287.296356 331.355835,279.363434 
	C331.794159,278.747040 334.686218,278.876556 335.382416,279.632019 
	C337.381378,281.801147 338.838074,284.469971 340.718170,287.234528 
M330.351288,287.979645 
	C329.149902,289.837708 327.948486,291.695770 326.564240,293.836609 
	C331.392426,293.836609 335.435303,293.836609 340.091736,293.836609 
	C337.700104,290.295990 335.636597,287.241119 333.368042,283.882660 
	C332.332825,285.302124 331.563660,286.356812 330.351288,287.979645 
z"/>
<path fill="#1F08B0" opacity="1.000000" stroke="none" 
	d="
M384.659332,300.619141 
	C381.916229,301.952850 379.476685,303.563354 376.879120,303.880768 
	C372.781708,304.381561 368.578125,304.016998 364.419495,304.010529 
	C363.754791,304.009491 363.079926,304.032349 362.427094,303.931732 
	C356.510681,303.019928 354.644440,298.720306 355.134857,287.183502 
	C355.374420,281.547546 358.317566,278.174866 363.505188,277.993805 
	C368.323242,277.825592 373.156921,277.820770 377.974274,277.999268 
	C382.757141,278.176514 385.486572,280.785828 386.289215,286.183807 
	C384.637665,285.960571 382.870972,286.258209 382.273132,285.557953 
	C376.342072,278.610687 368.768372,283.095612 361.964020,282.611328 
	C361.206421,282.557373 359.688416,284.705872 359.559509,285.941132 
	C359.216309,289.229279 358.910583,292.701599 359.655334,295.848541 
	C360.040009,297.474030 362.568848,299.478119 364.340607,299.712799 
	C368.590912,300.275787 372.983948,300.115875 377.282074,299.776062 
	C378.839630,299.652924 380.283447,298.173767 381.793335,297.339020 
	C382.999115,296.672302 384.226379,296.044403 385.444092,295.399261 
	C385.742249,295.711517 386.040436,296.023743 386.338593,296.335999 
	C385.856384,297.662689 385.374207,298.989380 384.659332,300.619141 
z"/>
<path fill="#260FB2" opacity="1.000000" stroke="none" 
	d="
M116.263138,296.870056 
	C116.263130,290.433746 116.263130,284.480194 116.263130,277.933746 
	C125.566101,277.933746 134.483093,277.855804 143.393585,278.060425 
	C144.237823,278.079803 145.041321,279.871643 145.863739,280.840576 
	C145.609726,281.233704 145.355713,281.626801 145.101715,282.019928 
	C137.053070,282.019928 129.004440,282.019928 120.829964,282.019928 
	C120.829964,284.511658 120.829964,286.453888 120.829964,288.906158 
	C127.126198,288.906158 133.245407,288.779510 139.350891,289.012604 
	C140.577957,289.059479 141.752853,290.473145 142.951813,291.256622 
	C142.716797,291.811859 142.481766,292.367065 142.246750,292.922302 
	C135.190994,292.922302 128.135239,292.922302 120.742157,292.922302 
	C120.742157,296.720245 120.742157,299.984558 120.742157,303.636841 
	C119.219116,303.778137 118.010216,303.890289 116.263145,304.052338 
	C116.263145,301.596436 116.263145,299.474640 116.263138,296.870056 
z"/>
<path fill="#1C05AE" opacity="1.000000" stroke="none" 
	d="
M264.165222,285.278381 
	C264.164551,291.561066 264.164551,297.368500 264.164551,303.394806 
	C261.481537,304.535034 259.924683,304.412994 260.003143,300.835388 
	C260.137024,294.734314 260.040039,288.628113 260.040039,282.815491 
	C256.226532,280.258392 250.400146,284.900452 247.368088,278.280945 
	C257.402893,278.280945 266.446381,278.280945 275.767670,278.280945 
	C276.343018,280.606293 276.414276,282.364929 273.023102,282.072906 
	C271.046295,281.902649 268.968597,281.724915 267.079254,282.164764 
	C265.963837,282.424438 265.127686,283.883453 264.165222,285.278381 
z"/>
<path fill="#1901AD" opacity="1.000000" stroke="none" 
	d="
M151.940186,300.837585 
	C151.939667,293.055695 151.939667,285.760681 151.939667,278.221527 
	C153.344131,278.221527 154.419235,278.221527 155.954346,278.221527 
	C155.954346,285.265472 155.954346,292.344574 155.954346,299.920929 
	C161.838577,299.920929 167.285141,299.781372 172.714279,300.026917 
	C173.948212,300.082764 175.121796,301.472717 176.323166,302.248627 
	C176.098846,302.830170 175.874527,303.411743 175.650192,303.993317 
	C168.377060,303.993317 161.102188,304.061218 153.833710,303.877289 
	C153.181580,303.860779 152.570724,302.214111 151.940186,300.837585 
z"/>
<path fill="#EB9224" opacity="1.000000" stroke="none" 
	d="
M104.095779,215.447327 
	C105.920593,215.890900 107.860718,216.566620 109.388260,217.767258 
	C110.477516,218.623413 111.207809,220.105698 111.753441,221.448685 
	C112.878052,224.216751 113.771957,227.078522 114.760788,229.901749 
	C111.804970,230.249237 108.849152,230.596741 105.671280,230.815460 
	C104.977684,225.759140 104.506149,220.831558 104.095779,215.447327 
z"/>
<path fill="#CB872B" opacity="1.000000" stroke="none" 
	d="
M252.456680,346.171722 
	C250.194870,346.536591 248.280701,347.110382 246.025162,347.786530 
	C247.363220,344.029022 247.327942,340.500183 242.264908,338.570160 
	C247.198746,338.903778 250.105484,337.423157 250.910400,332.454285 
	C252.100159,336.978973 254.451492,339.294342 260.299072,337.674683 
	C256.633575,341.030273 252.766235,343.193573 255.506470,348.043060 
	C254.605759,347.488922 253.705032,346.934814 252.456680,346.171722 
z"/>
<path fill="#2F2F4D" opacity="1.000000" stroke="none" 
	d="
M320.993347,216.974350 
	C320.441498,216.514694 319.889648,216.055023 319.564697,215.339951 
	C321.836914,214.786743 323.882233,214.488937 325.927551,214.191132 
	C327.877075,214.376999 329.827423,214.554443 331.775909,214.750488 
	C336.059052,215.181442 340.336853,215.683472 344.628662,215.990479 
	C345.257050,216.035431 345.950500,215.170532 346.776550,214.423874 
	C347.597290,214.540497 348.255280,214.959854 348.701141,215.880951 
	C347.307678,219.676361 346.126404,222.970032 344.945129,226.263718 
	C344.284332,225.762466 343.623505,225.261215 342.842590,224.001938 
	C342.883545,221.987656 343.044586,220.731400 343.266022,219.003632 
	C335.650146,218.309753 328.321747,217.642044 320.993347,216.974350 
z"/>
<path fill="#373753" opacity="1.000000" stroke="none" 
	d="
M315.087769,320.883606 
	C316.052338,318.606506 316.818665,315.340973 318.035828,315.163269 
	C321.057159,314.722168 324.955261,313.171906 327.442749,317.383148 
	C323.958374,317.104919 320.779327,316.851074 317.311310,316.574158 
	C317.311310,318.959717 317.311310,320.569977 317.311310,322.666504 
	C319.823975,322.666504 322.413086,322.666504 325.002197,322.666504 
	C325.073303,322.415924 325.144379,322.165344 325.215485,321.914764 
	C324.169617,321.428650 323.123749,320.942566 322.077881,320.456451 
	C322.111938,320.160614 322.145966,319.864777 322.180023,319.568909 
	C323.897003,319.782684 325.613983,319.996429 327.318451,320.208618 
	C326.803864,325.000580 324.123535,325.255096 320.896881,325.163513 
	C318.001038,325.081329 315.499176,324.904053 315.087769,320.883606 
z"/>
<path fill="#45445F" opacity="1.000000" stroke="none" 
	d="
M183.182846,314.778992 
	C184.672302,315.536896 185.779266,316.278168 187.620255,317.510956 
	C183.285706,317.163666 180.046341,316.904144 176.873962,316.649963 
	C175.870193,323.271027 178.574860,324.741089 186.287827,322.286438 
	C183.320190,326.002502 179.434875,325.399841 176.287888,324.373199 
	C175.109558,323.988739 174.301453,319.993042 174.660339,317.869629 
	C175.503571,312.880676 179.875046,315.356659 183.182846,314.778992 
z"/>
<path fill="#C98224" opacity="1.000000" stroke="none" 
	d="
M221.326874,340.440918 
	C220.194901,339.234528 219.278519,338.367401 218.896378,338.005829 
	C220.962738,336.646606 222.984741,335.316559 225.100952,333.924561 
	C226.337463,334.840179 228.504379,336.444733 230.315765,337.786011 
	C229.677353,339.558105 228.794846,342.007812 228.106232,343.919250 
	C226.148438,343.919250 223.686646,343.919250 221.094879,343.919250 
	C221.181274,343.313293 221.361862,342.046722 221.326874,340.440918 
z"/>
<path fill="#C98224" opacity="1.000000" stroke="none" 
	d="
M278.292969,335.791046 
	C279.982880,336.544159 281.525574,336.946228 282.522064,337.205933 
	C281.703339,339.398468 280.809631,341.791779 279.932159,344.141632 
	C278.417267,344.032349 276.012848,343.858856 273.667236,343.689606 
	C272.995026,342.001556 272.023407,339.561646 271.274445,337.680939 
	C272.923279,336.657745 275.006775,335.364807 277.356018,333.906952 
	C277.312592,333.822632 277.729156,334.631348 278.292969,335.791046 
z"/>
<path fill="#1B1B3C" opacity="1.000000" stroke="none" 
	d="
M254.496857,315.920410 
	C254.778671,319.114807 254.778671,321.984985 254.778671,324.855133 
	C254.551834,324.909027 254.324982,324.962921 254.098145,325.016815 
	C253.546585,323.812225 252.995041,322.607605 252.406219,321.321625 
	C249.082596,321.769257 244.818939,319.309967 243.269272,324.808838 
	C243.269272,321.655792 243.269272,318.502747 243.269272,314.605591 
	C246.881821,314.932526 250.548431,315.264343 254.496857,315.920410 
M244.793121,319.223755 
	C247.010254,319.433014 249.225555,319.744843 251.445709,319.784332 
	C252.052261,319.795105 252.866028,319.102478 253.215866,318.513550 
	C253.427368,318.157471 253.102768,317.207764 252.719635,316.822662 
	C251.295242,315.390839 245.854660,316.542023 244.793121,319.223755 
z"/>
<path fill="#1B1B3C" opacity="1.000000" stroke="none" 
	d="
M214.678146,314.847809 
	C220.585403,315.211884 220.645462,315.343994 219.725464,323.990814 
	C217.949875,323.163666 216.015213,321.643280 213.987427,321.506836 
	C212.256104,321.390350 210.417831,322.863464 208.369232,323.744202 
	C208.369232,321.717651 208.369232,318.628754 208.369232,314.847656 
	C210.124313,314.847656 212.186569,314.847656 214.678146,314.847809 
M210.493729,316.423065 
	C210.170929,316.949860 209.848145,317.476654 209.525360,318.003479 
	C211.736160,318.625305 213.921265,319.420471 216.174713,319.754425 
	C216.784195,319.844757 217.600586,318.538849 218.322021,317.873840 
	C216.794281,317.352142 215.287949,316.747864 213.729645,316.344116 
	C212.966339,316.146271 212.106491,316.320953 210.493729,316.423065 
z"/>
<path fill="#232444" opacity="1.000000" stroke="none" 
	d="
M345.114227,226.560455 
	C346.126404,222.970032 347.307678,219.676361 348.778168,216.175873 
	C349.829254,220.042496 350.591187,224.115921 351.264679,228.553955 
	C348.419067,230.498047 346.229156,230.455811 345.114227,226.560455 
z"/>
<path fill="#373753" opacity="1.000000" stroke="none" 
	d="
M266.630554,317.254089 
	C267.961182,319.289154 269.217407,321.004608 270.386536,322.601105 
	C266.625366,323.144257 262.786469,323.698669 258.468201,324.322296 
	C260.389221,321.737488 262.303772,319.056732 264.385834,316.513092 
	C264.607239,316.242615 265.809113,316.774719 266.630554,317.254089 
z"/>
<path fill="#53526B" opacity="1.000000" stroke="none" 
	d="
M285.521851,323.312622 
	C282.986664,323.793182 279.830872,324.765717 277.280426,323.917694 
	C276.249969,323.575043 275.740601,317.333618 276.369751,317.070892 
	C279.313873,315.841461 282.737518,315.760437 285.989868,315.269135 
	C286.051025,315.787872 286.112183,316.306580 286.173340,316.825317 
	C283.667908,316.825317 281.162506,316.825317 278.328583,316.825317 
	C278.328583,318.921021 278.328583,320.652252 278.328583,323.073059 
	C280.612854,323.073059 282.878662,323.073059 285.521851,323.312622 
z"/>
<path fill="#373753" opacity="1.000000" stroke="none" 
	d="
M192.453110,322.493500 
	C193.679977,319.649994 194.924103,317.209656 196.701889,313.722565 
	C198.806427,317.223877 200.374313,319.832367 202.216156,322.896667 
	C198.604370,322.896667 195.537369,322.896667 192.453110,322.493500 
z"/>
<path fill="#373753" opacity="1.000000" stroke="none" 
	d="
M235.071609,319.226929 
	C235.070679,321.415710 235.070679,323.166595 235.070679,324.917450 
	C234.580338,324.953918 234.089981,324.990387 233.599640,325.026855 
	C233.341385,322.500122 233.083115,319.973419 232.797028,317.174377 
	C231.541519,316.793243 230.131958,316.365356 228.722412,315.937469 
	C228.761139,315.691833 228.799881,315.446198 228.838623,315.200562 
	C232.395935,315.200562 235.953262,315.200562 239.659592,315.200562 
	C237.933167,316.551147 236.502853,317.670105 235.071609,319.226929 
z"/>
<path fill="#2F2F4D" opacity="1.000000" stroke="none" 
	d="
M305.033844,320.903351 
	C303.851654,320.140137 302.669464,319.376953 301.083221,318.352905 
	C300.811127,320.829865 300.592346,322.821625 300.373535,324.813385 
	C300.071198,324.817230 299.768829,324.821045 299.466492,324.824890 
	C299.466492,321.606262 299.466492,318.387634 299.466492,314.390167 
	C301.776154,316.214966 303.765137,317.786377 305.702667,319.756104 
	C305.355377,320.329834 305.149597,320.579468 305.033844,320.903351 
z"/>
<path fill="#232444" opacity="1.000000" stroke="none" 
	d="
M305.262207,321.164551 
	C305.149597,320.579468 305.355377,320.329834 305.876434,320.053619 
	C306.805328,320.382660 307.508972,320.812500 308.697754,321.538666 
	C309.048370,319.262848 309.369049,317.181366 309.689728,315.099884 
	C309.975342,315.108063 310.260986,315.116241 310.546600,315.124420 
	C310.546600,318.308136 310.546600,321.491852 310.546600,325.524933 
	C308.670410,324.003815 307.080475,322.714752 305.262207,321.164551 
z"/>
<path fill="#0C0E35" opacity="1.000000" stroke="none" 
	d="
M116.957848,269.615601 
	C117.415588,269.633942 117.734879,269.509949 118.054169,269.385986 
	C117.642578,269.415070 117.230988,269.444183 116.957848,269.615601 
z"/>
<path fill="#F5F5F6" opacity="1.000000" stroke="none" 
	d="
M182.337646,207.246826 
	C182.891586,201.838593 183.201569,196.845581 184.036316,191.941895 
	C184.624420,188.487091 186.453659,185.978241 190.612793,185.731064 
	C210.696747,184.537521 230.818283,182.879379 250.720963,187.136917 
	C260.325470,189.191498 267.520966,195.769852 274.105255,202.540359 
	C276.385468,204.885040 277.740204,209.203934 277.654053,212.573425 
	C277.400208,222.500443 276.232483,232.405258 275.380463,242.315155 
	C275.086182,245.738281 273.243042,247.052338 269.717957,246.996887 
	C244.075348,246.593384 218.430817,246.285416 192.785782,246.092712 
	C188.619095,246.061401 186.499176,244.043839 186.033173,240.312912 
	C184.677216,229.456696 183.540588,218.573074 182.337646,207.246826 
M261.617950,234.904907 
	C262.080597,234.570419 262.543274,234.235931 263.705566,234.039932 
	C265.058441,231.384827 266.411346,228.729736 267.861328,225.328781 
	C266.245758,219.176025 262.734711,215.868073 257.926880,215.968964 
	C252.915131,216.074127 249.501389,219.630524 248.111862,226.539001 
	C248.111862,226.539001 248.265457,226.988892 248.199493,227.722580 
	C249.467865,230.218430 249.262909,234.328857 254.324753,233.352829 
	C254.324753,233.352829 254.784225,233.409027 254.732193,234.210754 
	C256.466888,237.474960 258.762543,236.422821 261.024292,234.992615 
	C261.024292,234.992615 261.058289,235.074707 261.617950,234.904907 
M241.330658,188.015228 
	C237.402786,187.739792 233.474915,187.464371 229.063812,187.155045 
	C229.631683,194.791336 230.154861,201.826431 230.687103,208.983719 
	C241.840927,209.657089 252.452011,210.371109 263.072845,210.883926 
	C265.528809,211.002502 268.147247,210.813034 270.441589,210.032440 
	C271.738922,209.591064 272.528778,207.658112 273.547211,206.397003 
	C272.332062,205.815186 271.149017,204.842102 269.894531,204.739029 
	C267.766632,204.564178 265.593628,204.938141 263.439575,205.081436 
	C263.390656,204.623428 263.341736,204.165421 263.292816,203.707413 
	C265.187653,203.291626 267.082489,202.875854 269.351105,202.378052 
	C261.834991,194.296875 253.231583,188.935440 241.330658,188.015228 
M191.149796,199.140320 
	C192.899704,202.293533 192.567230,207.496643 197.341980,207.805481 
	C205.240082,208.316360 213.195282,207.944351 221.954605,207.944351 
	C221.954605,202.237045 222.152145,196.439850 221.798569,190.676437 
	C221.721970,189.428009 219.670837,187.286728 218.519928,187.280533 
	C210.220932,187.235916 201.907272,187.466736 193.631851,188.070587 
	C192.354782,188.163757 190.558762,190.471680 190.238266,192.012360 
	C189.827271,193.988129 190.667007,196.224091 191.149796,199.140320 
M241.583099,244.455566 
	C251.655884,244.455566 261.728668,244.455566 271.801453,244.455566 
	C271.803223,243.873596 271.804962,243.291611 271.806702,242.709641 
	C245.307709,242.201859 218.808716,241.694061 192.309723,241.186279 
	C192.217896,241.617966 192.126083,242.049667 192.034256,242.481354 
	C194.755936,243.018555 197.469498,243.969437 200.200668,244.023010 
	C213.668091,244.287125 227.140167,244.313492 241.583099,244.455566 
M190.469833,224.060898 
	C190.812698,227.609329 189.213730,231.516678 191.117081,234.189026 
	C193.407715,232.440781 195.076996,231.461258 196.344193,230.105835 
	C197.346237,229.034012 198.565613,227.390564 198.382050,226.202866 
	C198.198166,225.013031 196.558136,223.643570 195.254059,223.147491 
	C193.996918,222.669250 192.353592,223.206161 190.469833,224.060898 
M207.636612,234.259720 
	C208.520996,233.331345 210.145477,232.403152 210.145706,231.474579 
	C210.146317,229.059830 210.054367,226.210648 208.779449,224.388199 
	C207.977448,223.241776 204.289200,222.701599 203.124725,223.558853 
	C201.454819,224.788223 200.005203,227.570221 200.072739,229.636688 
	C200.200226,233.538223 202.876343,235.418411 207.636612,234.259720 
M242.241364,225.648682 
	C242.927200,225.082153 243.613022,224.515625 245.030579,223.344650 
	C241.593735,223.344650 239.381622,223.344650 237.337799,223.344650 
	C237.337799,227.300278 237.337799,230.880737 237.337799,235.027039 
	C239.925156,234.646378 242.049805,234.333801 244.174454,234.021225 
	C244.075974,233.529785 243.977493,233.038330 243.879013,232.546890 
	C242.495300,232.139206 241.111603,231.731522 238.700256,231.021057 
	C241.259094,230.217896 242.650070,229.781296 244.041046,229.344696 
	C244.044189,229.024612 244.047318,228.704544 244.050446,228.384460 
	C242.929825,228.041428 241.809189,227.698380 240.688553,227.355347 
	C240.921005,226.798706 241.153442,226.242050 242.241364,225.648682 
M226.725006,232.790039 
	C231.362274,235.939041 233.085709,235.698303 234.333603,232.589035 
	C232.186996,231.514893 228.628525,230.776184 228.381912,229.430511 
	C227.314865,223.608139 232.930984,226.978104 235.392151,225.423172 
	C233.120834,222.366089 230.393982,222.110519 227.836365,223.824234 
	C224.745407,225.895340 224.755005,229.021103 226.725006,232.790039 
M217.278748,232.078400 
	C216.563324,230.948273 215.523605,229.900986 215.208786,228.668533 
	C214.740814,226.836472 214.785431,224.873474 214.611908,222.966202 
	C214.172272,223.012924 213.732635,223.059647 213.292999,223.106354 
	C213.292999,226.876053 213.292999,230.645752 213.292999,234.612427 
	C215.011154,234.612427 216.498047,234.691010 217.950455,234.503113 
	C218.113739,234.481995 218.082031,232.953751 217.278748,232.078400 
M224.828812,215.294296 
	C224.942017,217.208908 225.055222,219.123505 225.168427,221.038116 
	C225.356628,221.016556 225.544830,220.994995 225.733032,220.973450 
	C225.733032,210.345947 225.733032,199.718430 225.733032,189.090927 
	C225.440369,189.091782 225.147720,189.092636 224.855057,189.093491 
	C224.855057,197.510574 224.855057,205.927658 224.828812,215.294296 
M195.299774,214.042572 
	C191.935791,211.718216 189.141144,213.135361 185.940460,215.218048 
	C187.973602,215.981644 189.446884,216.722794 191.007996,217.077789 
	C193.422867,217.626907 195.873672,216.155746 195.299774,214.042572 
M229.461456,216.909698 
	C232.542068,217.175491 235.622665,217.441284 238.703278,217.707077 
	C234.004700,213.066376 232.670319,213.046005 229.461456,216.909698 
z"/>
<path fill="#FAFAFA" opacity="1.000000" stroke="none" 
	d="
M183.025208,268.147552 
	C179.212311,268.147552 175.399414,268.147552 172.590088,268.147552 
	C175.947891,264.398804 179.555649,260.220398 183.370529,256.240509 
	C184.122528,255.455948 185.675797,255.102829 186.854584,255.113190 
	C216.268112,255.371597 245.681732,255.660461 275.092010,256.144745 
	C276.753662,256.172119 278.387085,257.914520 280.347839,259.038879 
	C280.644531,258.335754 281.040833,257.396667 281.282013,256.825104 
	C284.287598,260.460663 287.415161,264.243774 290.505676,267.982086 
	C285.692383,267.982086 280.296600,267.982086 273.975800,267.988281 
	C243.042282,268.045471 213.033737,268.096527 183.025208,268.147552 
z"/>
<path fill="#E9EAEC" opacity="1.000000" stroke="none" 
	d="
M240.000000,250.971436 
	C252.211121,250.972214 263.922241,250.972214 276.833954,250.972214 
	C272.887543,254.154465 184.719650,253.683365 180.021072,250.970657 
	C200.396393,250.970657 219.948196,250.970657 240.000000,250.971436 
z"/>
<path fill="#F1F1F3" opacity="1.000000" stroke="none" 
	d="
M320.740967,217.144348 
	C328.321747,217.642044 335.650146,218.309753 343.266022,219.003632 
	C343.044586,220.731400 342.883545,221.987656 342.670746,223.618317 
	C342.204895,224.483978 341.886353,225.232666 341.362152,225.427216 
	C335.163025,227.727875 323.871765,223.302567 320.740967,217.144348 
z"/>
<path fill="#F1F1F3" opacity="1.000000" stroke="none" 
	d="
M161.977310,212.903717 
	C165.235245,213.496582 168.493195,214.089462 171.751144,214.682343 
	C171.671265,215.286316 171.591385,215.890305 171.511505,216.494278 
	C157.134750,215.964951 142.758011,215.435623 128.107468,214.274506 
	C129.435379,213.432404 131.035538,213.054230 132.639084,213.039291 
	C142.418060,212.948242 152.197815,212.939743 161.977310,212.903717 
z"/>
<path fill="#00001E" opacity="1.000000" stroke="none" 
	d="
M183.339844,268.415009 
	C213.033737,268.096527 243.042282,268.045471 273.512512,268.069275 
	C272.728394,268.432312 271.482910,268.970062 270.236603,268.972076 
	C242.024689,269.018158 213.812668,269.007690 185.600693,268.990540 
	C184.951889,268.990143 184.303223,268.789642 183.339844,268.415009 
z"/>
<path fill="#E5E5E8" opacity="1.000000" stroke="none" 
	d="
M319.508026,222.654236 
	C308.859009,221.186417 298.209991,219.718582 286.537933,218.109756 
	C298.498199,216.599854 309.421753,215.612289 319.849854,221.687164 
	C319.725525,222.355637 319.616791,222.504929 319.508026,222.654236 
z"/>
<path fill="#D7D7DB" opacity="1.000000" stroke="none" 
	d="
M309.984222,228.777344 
	C305.210510,228.752396 300.427429,228.530014 295.665710,228.756882 
	C290.699158,228.993515 286.908997,231.464340 284.375702,235.818634 
	C284.041016,236.393890 283.325867,236.747787 282.446777,237.492279 
	C284.178925,227.176300 298.523071,224.508438 309.592407,227.310303 
	C309.993378,228.053848 309.988800,228.415604 309.984222,228.777344 
z"/>
<path fill="#141539" opacity="1.000000" stroke="none" 
	d="
M164.100754,244.902145 
	C169.361252,248.148285 169.279419,258.451630 163.969757,261.395538 
	C161.544235,262.740356 158.877502,259.784912 158.650238,255.500107 
	C163.281097,258.151642 165.916412,257.315247 166.203873,252.580322 
	C166.337799,250.374557 164.764694,248.065140 163.983337,245.401398 
	C164.001312,245.000107 164.100754,244.902145 164.100754,244.902145 
z"/>
<path fill="#00001E" opacity="1.000000" stroke="none" 
	d="
M161.672272,212.623322 
	C152.197815,212.939743 142.418060,212.948242 132.639084,213.039291 
	C131.035538,213.054230 129.435379,213.432404 127.602341,214.090393 
	C127.371017,214.538071 127.208321,214.456009 127.326157,214.014465 
	C124.300171,213.450165 121.156342,213.327438 117.680511,213.131805 
	C116.900345,213.002563 116.452164,212.946243 116.003990,212.889908 
	C116.579010,212.604370 117.155006,212.067734 117.728897,212.069962 
	C132.275162,212.126572 146.821182,212.239716 161.672272,212.623322 
z"/>
<path fill="#D7D7DB" opacity="1.000000" stroke="none" 
	d="
M140.902451,230.818420 
	C147.365952,223.737900 155.523422,226.071533 164.205643,226.100174 
	C156.484604,227.871109 149.706116,229.425842 142.269073,230.954956 
	C141.374496,230.892349 141.138474,230.855392 140.902451,230.818420 
z"/>
<path fill="#E5E5E8" opacity="1.000000" stroke="none" 
	d="
M325.537415,214.074768 
	C323.882233,214.488937 321.836914,214.786743 319.378479,215.132996 
	C314.444489,214.414780 309.923645,213.648117 305.402771,212.881470 
	C305.447021,212.407883 305.491272,211.934296 305.535492,211.460693 
	C312.072754,212.293259 318.610016,213.125824 325.537415,214.074768 
z"/>
<path fill="#141539" opacity="1.000000" stroke="none" 
	d="
M148.713013,246.661682 
	C149.841736,248.396820 151.123627,249.816635 152.405502,251.236435 
	C152.252441,251.512558 152.099380,251.788666 151.946304,252.064789 
	C150.546921,251.585770 149.147537,251.106766 147.478058,250.535324 
	C147.200256,251.720825 146.923584,252.901581 146.615891,254.214630 
	C143.479370,250.956360 146.459473,243.764267 152.623581,241.323837 
	C150.981705,243.518524 149.923935,244.932434 148.713013,246.661682 
z"/>
<path fill="#EB9224" opacity="1.000000" stroke="none" 
	d="
M240.545990,176.939224 
	C238.619934,176.961121 237.001694,177.330475 235.688583,176.855804 
	C234.462418,176.412552 233.560242,175.072983 232.515472,174.127930 
	C232.838455,173.697037 233.161438,173.266144 233.484421,172.835251 
	C235.761368,172.835251 238.054718,172.677368 240.307312,172.911575 
	C241.231430,173.007660 242.067581,173.949829 242.943756,174.507141 
	C242.291504,175.310867 241.639252,176.114594 240.545990,176.939224 
z"/>
<path fill="#141539" opacity="1.000000" stroke="none" 
	d="
M298.991516,241.991867 
	C302.505157,236.695099 304.789673,241.938171 307.551392,243.405243 
	C306.402069,243.351624 305.252777,243.297989 304.100525,243.248688 
	C303.871826,245.131989 303.646027,247.010956 303.420227,248.889938 
	C303.025970,248.909210 302.631714,248.928497 302.237488,248.947769 
	C301.361389,246.719360 300.485291,244.490952 299.304596,242.131271 
	C299.000000,242.000000 298.991516,241.991867 298.991516,241.991867 
z"/>
<path fill="#F52523" opacity="1.000000" stroke="none" 
	d="
M231.030853,174.923203 
	C228.401062,175.737839 225.772720,176.113052 223.144363,176.488266 
	C223.152466,175.410385 223.160568,174.332520 223.168671,173.254639 
	C225.789871,173.664352 228.411087,174.074066 231.030853,174.923203 
z"/>
<path fill="#141539" opacity="1.000000" stroke="none" 
	d="
M299.003967,242.004242 
	C298.346771,242.870102 297.808685,243.875244 297.001923,244.566986 
	C294.352539,246.838516 294.753632,248.592026 298.048981,250.022354 
	C297.837524,250.490631 297.626038,250.958908 297.414581,251.427185 
	C295.417389,250.878677 293.420166,250.330154 291.422974,249.781631 
	C291.167877,249.272873 290.912781,248.764114 290.657684,248.255341 
	C293.193329,246.192993 295.728973,244.130646 298.628052,242.030090 
	C298.991516,241.991867 299.000000,242.000000 299.003967,242.004242 
z"/>
<path fill="#141539" opacity="1.000000" stroke="none" 
	d="
M310.754028,248.480438 
	C310.458496,247.157349 309.910614,246.024750 309.362732,244.892151 
	C309.635925,244.686676 309.909088,244.481201 310.182251,244.275726 
	C311.584259,245.936905 312.986237,247.598099 314.974884,249.954376 
	C311.785156,250.378189 309.713135,250.653488 307.641144,250.928787 
	C307.548828,250.571381 307.456512,250.213989 307.364166,249.856583 
	C308.410034,249.461380 309.455872,249.066162 310.754028,248.480438 
z"/>
<path fill="#141539" opacity="1.000000" stroke="none" 
	d="
M291.171692,255.258743 
	C293.060547,256.623932 294.896301,258.334534 296.732056,260.045166 
	C296.149811,260.555756 295.567596,261.066345 294.985352,261.576935 
	C293.696442,259.586029 292.407501,257.595093 291.171692,255.258743 
z"/>
<path fill="#141539" opacity="1.000000" stroke="none" 
	d="
M304.078705,264.646210 
	C301.801483,264.376099 299.816132,263.910675 297.830750,263.445251 
	C298.128265,262.695526 298.425781,261.945770 298.723328,261.196045 
	C300.605743,262.281006 302.488129,263.365936 304.078705,264.646210 
z"/>
<path fill="#141539" opacity="1.000000" stroke="none" 
	d="
M302.578735,254.150833 
	C301.497681,253.318359 300.696472,252.402191 299.895264,251.486023 
	C300.031189,251.110733 300.167145,250.735443 300.303070,250.360153 
	C301.455414,250.526443 302.607788,250.692749 303.760132,250.859039 
	C303.459595,251.928406 303.159058,252.997772 302.578735,254.150833 
z"/>
<path fill="#141539" opacity="1.000000" stroke="none" 
	d="
M158.204987,241.553894 
	C156.395767,241.975311 154.839874,242.150864 153.283981,242.326431 
	C154.779846,239.816132 156.425934,238.925552 158.204987,241.553894 
z"/>
<path fill="#141539" opacity="1.000000" stroke="none" 
	d="
M154.524139,253.393753 
	C154.951035,252.009567 155.618927,250.883423 156.286804,249.757278 
	C156.868362,250.276627 157.449921,250.795959 158.031479,251.315292 
	C156.942703,252.094116 155.853928,252.872955 154.524139,253.393753 
z"/>
<path fill="#141539" opacity="1.000000" stroke="none" 
	d="
M157.196442,264.572388 
	C156.020645,264.407959 155.117432,264.026947 154.214233,263.645935 
	C154.527939,263.163910 154.841644,262.681885 155.155365,262.199860 
	C155.926590,262.918518 156.697815,263.637177 157.196442,264.572388 
z"/>
<path fill="#141539" opacity="1.000000" stroke="none" 
	d="
M299.817383,257.227234 
	C299.305756,258.338257 298.732697,259.115448 298.159668,259.892639 
	C297.739838,259.399841 297.319977,258.907074 296.900146,258.414276 
	C297.852081,257.907318 298.803986,257.400360 299.817383,257.227234 
z"/>
<path fill="#F1F1F3" opacity="1.000000" stroke="none" 
	d="
M118.012512,213.204697 
	C121.156342,213.327438 124.300171,213.450165 127.259537,214.042480 
	C124.351830,214.330093 121.628571,214.148132 118.463562,213.729004 
	C118.021812,213.491852 118.012512,213.204697 118.012512,213.204697 
z"/>
<path fill="#141539" opacity="1.000000" stroke="none" 
	d="
M146.172470,257.209534 
	C147.191696,257.369537 148.153290,257.833038 149.114883,258.296570 
	C148.819977,258.706024 148.525070,259.115509 148.230164,259.524963 
	C147.525070,258.854340 146.819962,258.183685 146.172470,257.209534 
z"/>
<path fill="#141539" opacity="1.000000" stroke="none" 
	d="
M162.416534,251.427383 
	C161.330338,251.348129 160.447037,251.051239 159.563751,250.754349 
	C159.783249,250.274628 160.002747,249.794907 160.222244,249.315186 
	C161.021301,249.946701 161.820374,250.578232 162.416534,251.427383 
z"/>
<path fill="#141539" opacity="1.000000" stroke="none" 
	d="
M312.243896,256.861420 
	C312.167053,256.142700 312.379547,255.454376 312.688507,254.812515 
	C312.711304,254.765076 313.428680,255.051926 313.823151,255.183365 
	C313.401123,255.756668 312.979095,256.329987 312.243896,256.861420 
z"/>
<path fill="#141539" opacity="1.000000" stroke="none" 
	d="
M151.185410,258.795380 
	C151.517227,258.138519 151.910583,257.787415 152.303940,257.436340 
	C152.447067,257.988129 152.590195,258.539917 152.733322,259.091705 
	C152.237854,259.094849 151.742401,259.097992 151.185410,258.795380 
z"/>
<path fill="#141539" opacity="1.000000" stroke="none" 
	d="
M307.527954,257.688354 
	C307.588409,258.451660 307.436584,258.993317 307.284729,259.534973 
	C306.931152,259.335022 306.577545,259.135040 306.223969,258.935059 
	C306.587860,258.445618 306.951752,257.956177 307.527954,257.688354 
z"/>
<path fill="#D7D7DB" opacity="1.000000" stroke="none" 
	d="
M141.224625,232.225616 
	C140.442291,232.932968 139.659958,233.640335 138.877625,234.347687 
	C138.631073,234.100159 138.384521,233.852631 138.137970,233.605103 
	C138.781204,232.854172 139.424438,232.103256 140.477264,231.498962 
	C140.999451,231.838913 141.112030,232.032257 141.224625,232.225616 
z"/>
<path fill="#141539" opacity="1.000000" stroke="none" 
	d="
M152.009247,262.045349 
	C152.153107,262.562805 152.054520,262.956635 151.955933,263.350433 
	C151.459869,262.857483 150.963821,262.364532 150.467758,261.871582 
	C150.900787,261.888306 151.333801,261.904999 152.009247,262.045349 
z"/>
<path fill="#141539" opacity="1.000000" stroke="none" 
	d="
M308.905548,260.941864 
	C309.323242,260.422852 309.740936,259.903839 310.158630,259.384796 
	C310.017426,259.928040 309.876221,260.471252 309.387787,261.028809 
	C309.040558,261.043152 308.905548,260.941864 308.905548,260.941864 
z"/>
<path fill="#141539" opacity="1.000000" stroke="none" 
	d="
M161.905655,243.092026 
	C161.412399,242.749069 160.919128,242.406113 160.425873,242.063141 
	C160.607742,241.850891 160.789612,241.638641 160.971497,241.426407 
	C161.305466,241.728180 161.639420,242.029968 161.990601,242.661011 
	C162.007797,242.990295 161.905655,243.092026 161.905655,243.092026 
z"/>
<path fill="#141539" opacity="1.000000" stroke="none" 
	d="
M155.392273,243.955307 
	C155.792908,243.711060 156.191589,243.712799 156.588043,243.743256 
	C156.599060,243.744110 156.586380,244.053009 156.584747,244.218262 
	C156.186508,244.213928 155.788254,244.209595 155.392273,243.955307 
z"/>
<path fill="#CBCBD2" opacity="1.000000" stroke="none" 
	d="
M310.303101,228.837891 
	C309.988800,228.415604 309.993378,228.053848 309.993469,227.420807 
	C310.574036,227.331772 311.159088,227.514038 311.744110,227.696289 
	C311.370087,228.097015 310.996033,228.497726 310.303101,228.837891 
z"/>
<path fill="#141539" opacity="1.000000" stroke="none" 
	d="
M163.952301,245.049805 
	C163.279037,244.636429 162.654770,244.173355 161.968079,243.401154 
	C161.905655,243.092026 162.007797,242.990295 162.058640,242.937500 
	C162.730209,243.351791 163.350937,243.818848 164.036209,244.594025 
	C164.100754,244.902145 164.001312,245.000107 163.952301,245.049805 
z"/>
<path fill="#141539" opacity="1.000000" stroke="none" 
	d="
M156.476135,247.599609 
	C156.420715,248.059921 156.192276,248.340057 155.963837,248.620209 
	C155.786758,248.435501 155.609680,248.250793 155.432587,248.066071 
	C155.722763,247.850525 156.012939,247.634979 156.476135,247.599609 
z"/>
<path fill="#E5E5E8" opacity="1.000000" stroke="none" 
	d="
M117.680511,213.131805 
	C118.012512,213.204697 118.021812,213.491852 118.018188,213.635468 
	C117.162857,213.585968 116.311142,213.392868 115.731705,213.044830 
	C116.452164,212.946243 116.900345,213.002563 117.680511,213.131805 
z"/>
<path fill="#141539" opacity="1.000000" stroke="none" 
	d="
M306.694885,261.896240 
	C306.728302,262.464172 306.597931,262.866791 306.467529,263.269440 
	C306.358185,263.159302 306.139862,263.025238 306.157928,262.943054 
	C306.248230,262.531525 306.400543,262.133636 306.694885,261.896240 
z"/>
<path fill="#141539" opacity="1.000000" stroke="none" 
	d="
M309.105316,261.097290 
	C308.971405,261.552216 308.772736,261.953033 308.574066,262.353851 
	C308.557190,261.979126 308.540283,261.604370 308.714478,261.085754 
	C308.905548,260.941864 309.040558,261.043152 309.105316,261.097290 
z"/>
<path fill="#E5E5E8" opacity="1.000000" stroke="none" 
	d="
M320.020325,222.001129 
	C320.392548,222.110855 320.578674,222.425827 320.764771,222.740784 
	C320.506012,222.808243 320.247253,222.875702 319.748260,222.798706 
	C319.616791,222.504929 319.725525,222.355637 320.020325,222.001129 
z"/>
<path fill="#D7D7DB" opacity="1.000000" stroke="none" 
	d="
M140.796280,231.322433 
	C140.705688,230.999283 140.881409,230.909790 140.891937,230.864105 
	C141.138474,230.855392 141.374496,230.892349 141.931091,231.089432 
	C142.069244,231.522644 141.886826,231.795761 141.464508,232.147247 
	C141.112030,232.032257 140.999451,231.838913 140.796280,231.322433 
z"/>
<path fill="#00001E" opacity="1.000000" stroke="none" 
	d="
M113.465324,212.431473 
	C113.524864,212.397125 113.405785,212.465820 113.465324,212.431473 
z"/>
<path fill="#FAFAFA" opacity="1.000000" stroke="none" 
	d="
M294.015076,290.341370 
	C290.591431,290.341431 287.657837,290.341431 284.476868,290.341431 
	C284.476868,287.400940 284.476868,285.004456 284.476868,282.058075 
	C291.025085,282.058075 297.428833,282.100677 303.831604,282.040161 
	C307.054413,282.009674 307.458221,284.199554 306.888397,286.371582 
	C306.501526,287.846100 305.127258,289.928192 303.908569,290.147247 
	C300.860901,290.695007 297.650299,290.336334 294.015076,290.341370 
z"/>
<path fill="#F5F5F6" opacity="1.000000" stroke="none" 
	d="
M330.572876,287.695557 
	C331.563660,286.356812 332.332825,285.302124 333.368042,283.882660 
	C335.636597,287.241119 337.700104,290.295990 340.091736,293.836609 
	C335.435303,293.836609 331.392426,293.836609 326.564240,293.836609 
	C327.948486,291.695770 329.149902,289.837708 330.572876,287.695557 
z"/>
<path fill="#CBCBD2" opacity="1.000000" stroke="none" 
	d="
M244.655731,318.850952 
	C245.854660,316.542023 251.295242,315.390839 252.719635,316.822662 
	C253.102768,317.207764 253.427368,318.157471 253.215866,318.513550 
	C252.866028,319.102478 252.052261,319.795105 251.445709,319.784332 
	C249.225555,319.744843 247.010254,319.433014 244.655731,318.850952 
z"/>
<path fill="#CBCBD2" opacity="1.000000" stroke="none" 
	d="
M210.892029,316.375061 
	C212.106491,316.320953 212.966339,316.146271 213.729645,316.344116 
	C215.287949,316.747864 216.794281,317.352142 218.322021,317.873840 
	C217.600586,318.538849 216.784195,319.844757 216.174713,319.754425 
	C213.921265,319.420471 211.736160,318.625305 209.525360,318.003479 
	C209.848145,317.476654 210.170929,316.949860 210.892029,316.375061 
z"/>
<path fill="#070933" opacity="1.000000" stroke="none" 
	d="
M241.774994,188.038498 
	C253.231583,188.935440 261.834991,194.296875 269.351105,202.378052 
	C267.082489,202.875854 265.187653,203.291626 263.292816,203.707413 
	C263.341736,204.165421 263.390656,204.623428 263.439575,205.081436 
	C265.593628,204.938141 267.766632,204.564178 269.894531,204.739029 
	C271.149017,204.842102 272.332062,205.815186 273.547211,206.397003 
	C272.528778,207.658112 271.738922,209.591064 270.441589,210.032440 
	C268.147247,210.813034 265.528809,211.002502 263.072845,210.883926 
	C252.452011,210.371109 241.840927,209.657089 230.687103,208.983719 
	C230.154861,201.826431 229.631683,194.791336 229.063812,187.155045 
	C233.474915,187.464371 237.402786,187.739792 241.774994,188.038498 
z"/>
<path fill="#070933" opacity="1.000000" stroke="none" 
	d="
M191.058838,198.744141 
	C190.667007,196.224091 189.827271,193.988129 190.238266,192.012360 
	C190.558762,190.471680 192.354782,188.163757 193.631851,188.070587 
	C201.907272,187.466736 210.220932,187.235916 218.519928,187.280533 
	C219.670837,187.286728 221.721970,189.428009 221.798569,190.676437 
	C222.152145,196.439850 221.954605,202.237045 221.954605,207.944351 
	C213.195282,207.944351 205.240082,208.316360 197.341980,207.805481 
	C192.567230,207.496643 192.899704,202.293533 191.058838,198.744141 
z"/>
<path fill="#1B1B3C" opacity="1.000000" stroke="none" 
	d="
M241.096863,244.439667 
	C227.140167,244.313492 213.668091,244.287125 200.200668,244.023010 
	C197.469498,243.969437 194.755936,243.018555 192.034256,242.481354 
	C192.126083,242.049667 192.217896,241.617966 192.309723,241.186279 
	C218.808716,241.694061 245.307709,242.201859 271.806702,242.709641 
	C271.804962,243.291611 271.803223,243.873596 271.801453,244.455566 
	C261.728668,244.455566 251.655884,244.455566 241.096863,244.439667 
z"/>
<path fill="#F25025" opacity="1.000000" stroke="none" 
	d="
M248.224289,226.076965 
	C249.501389,219.630524 252.915131,216.074127 257.926880,215.968964 
	C262.734711,215.868073 266.245758,219.176025 267.427795,225.691086 
	C265.972290,226.120026 264.950317,226.186676 263.574341,226.156189 
	C262.489716,226.098206 261.759125,226.137375 260.610168,226.110138 
	C258.783661,226.088440 257.375519,226.133102 255.538879,226.117004 
	C252.815033,226.063141 250.519669,226.070053 248.224289,226.076965 
z"/>
<path fill="#232444" opacity="1.000000" stroke="none" 
	d="
M263.928314,226.253326 
	C264.950317,226.186676 265.972290,226.120026 267.379272,226.064026 
	C266.411346,228.729736 265.058441,231.384827 263.333160,233.719543 
	C262.128784,233.262878 261.296783,233.126617 260.315491,232.562897 
	C259.834351,231.642670 259.502502,231.149902 259.273621,230.554016 
	C259.376617,230.450897 259.667694,230.435989 259.926147,230.538025 
	C260.446838,230.402298 260.709106,230.164566 260.832764,229.559189 
	C258.780426,229.470276 256.866669,229.748993 254.981506,230.025574 
	C255.010117,230.023422 255.008560,229.966080 254.697510,229.873901 
	C254.001251,229.606323 253.616058,229.430908 253.230865,229.255478 
	C253.475525,230.192337 253.720200,231.129181 253.967102,232.304626 
	C253.969345,232.543198 254.003891,233.019135 254.003891,233.019135 
	C249.262909,234.328857 249.467865,230.218430 248.640411,227.361847 
	C251.376663,226.726669 253.671997,226.452225 255.967346,226.177780 
	C257.375519,226.133102 258.783661,226.088440 260.794250,226.327072 
	C262.240570,226.491364 263.084442,226.372345 263.928314,226.253326 
z"/>
<path fill="#2F2F4D" opacity="1.000000" stroke="none" 
	d="
M190.674881,223.678986 
	C192.353592,223.206161 193.996918,222.669250 195.254059,223.147491 
	C196.558136,223.643570 198.198166,225.013031 198.382050,226.202866 
	C198.565613,227.390564 197.346237,229.034012 196.344193,230.105835 
	C195.076996,231.461258 193.407715,232.440781 191.117081,234.189026 
	C189.213730,231.516678 190.812698,227.609329 190.674881,223.678986 
z"/>
<path fill="#1B1B3C" opacity="1.000000" stroke="none" 
	d="
M207.298935,234.450974 
	C202.876343,235.418411 200.200226,233.538223 200.072739,229.636688 
	C200.005203,227.570221 201.454819,224.788223 203.124725,223.558853 
	C204.289200,222.701599 207.977448,223.241776 208.779449,224.388199 
	C210.054367,226.210648 210.146317,229.059830 210.145706,231.474579 
	C210.145477,232.403152 208.520996,233.331345 207.298935,234.450974 
M206.331528,225.491074 
	C203.003387,225.230698 201.904892,227.195541 202.710541,229.911957 
	C203.002090,230.895020 205.539215,232.245346 206.284729,231.876755 
	C209.101944,230.483902 208.849335,228.176346 206.331528,225.491074 
z"/>
<path fill="#2F2F4D" opacity="1.000000" stroke="none" 
	d="
M241.813629,225.667053 
	C241.153442,226.242050 240.921005,226.798706 240.688553,227.355347 
	C241.809189,227.698380 242.929825,228.041428 244.050446,228.384460 
	C244.047318,228.704544 244.044189,229.024612 244.041046,229.344696 
	C242.650070,229.781296 241.259094,230.217896 238.700256,231.021057 
	C241.111603,231.731522 242.495300,232.139206 243.879013,232.546890 
	C243.977493,233.038330 244.075974,233.529785 244.174454,234.021225 
	C242.049805,234.333801 239.925156,234.646378 237.337799,235.027039 
	C237.337799,230.880737 237.337799,227.300278 237.337799,223.344650 
	C239.381622,223.344650 241.593735,223.344650 245.030579,223.344650 
	C243.613022,224.515625 242.927200,225.082153 241.813629,225.667053 
z"/>
<path fill="#232444" opacity="1.000000" stroke="none" 
	d="
M226.484406,232.497513 
	C224.755005,229.021103 224.745407,225.895340 227.836365,223.824234 
	C230.393982,222.110519 233.120834,222.366089 235.392151,225.423172 
	C232.930984,226.978104 227.314865,223.608139 228.381912,229.430511 
	C228.628525,230.776184 232.186996,231.514893 234.333603,232.589035 
	C233.085709,235.698303 231.362274,235.939041 226.484406,232.497513 
z"/>
<path fill="#1B1B3C" opacity="1.000000" stroke="none" 
	d="
M217.709747,232.101410 
	C218.082031,232.953751 218.113739,234.481995 217.950455,234.503113 
	C216.498047,234.691010 215.011154,234.612427 213.292999,234.612427 
	C213.292999,230.645752 213.292999,226.876053 213.292999,223.106354 
	C213.732635,223.059647 214.172272,223.012924 214.611908,222.966202 
	C214.785431,224.873474 214.740814,226.836472 215.208786,228.668533 
	C215.523605,229.900986 216.563324,230.948273 217.709747,232.101410 
z"/>
<path fill="#8E8E97" opacity="1.000000" stroke="none" 
	d="
M224.841934,214.819519 
	C224.855057,205.927658 224.855057,197.510574 224.855057,189.093491 
	C225.147720,189.092636 225.440369,189.091782 225.733032,189.090927 
	C225.733032,199.718430 225.733032,210.345947 225.733032,220.973450 
	C225.544830,220.994995 225.356628,221.016556 225.168427,221.038116 
	C225.055222,219.123505 224.942017,217.208908 224.841934,214.819519 
z"/>
<path fill="#1B1B3C" opacity="1.000000" stroke="none" 
	d="
M195.689728,214.156464 
	C195.873672,216.155746 193.422867,217.626907 191.007996,217.077789 
	C189.446884,216.722794 187.973602,215.981644 185.940460,215.218048 
	C189.141144,213.135361 191.935791,211.718216 195.689728,214.156464 
z"/>
<path fill="#0C0E35" opacity="1.000000" stroke="none" 
	d="
M229.153076,216.596939 
	C232.670319,213.046005 234.004700,213.066376 238.703278,217.707077 
	C235.622665,217.441284 232.542068,217.175491 229.153076,216.596939 
z"/>
<path fill="#2F2F4D" opacity="1.000000" stroke="none" 
	d="
M260.464813,232.990356 
	C261.296783,233.126617 262.128784,233.262878 262.983337,233.650299 
	C262.543274,234.235931 262.080597,234.570419 261.148071,234.703873 
	C259.744110,234.378555 258.809967,234.254272 257.875854,234.129990 
	C257.853271,234.381699 257.830688,234.633408 257.808105,234.885117 
	C258.905853,234.936234 260.003601,234.987366 261.101349,235.038483 
	C258.762543,236.422821 256.466888,237.474960 254.846512,233.548889 
	C254.993210,232.706360 255.025589,232.525711 255.367096,232.230316 
	C255.453690,231.399063 255.231140,230.682571 255.008575,229.966080 
	C255.008560,229.966080 255.010117,230.023422 255.344284,230.025162 
	C256.841858,230.232208 258.005249,230.437515 259.088501,231.037994 
	C259.493835,231.952240 259.979340,232.471313 260.464813,232.990356 
z"/>
<path fill="#1B1B3C" opacity="1.000000" stroke="none" 
	d="
M255.538879,226.117004 
	C253.671997,226.452225 251.376663,226.726669 248.673386,226.994995 
	C248.265457,226.988892 248.111862,226.539001 248.168076,226.307983 
	C250.519669,226.070053 252.815033,226.063141 255.538879,226.117004 
z"/>
<path fill="#45445F" opacity="1.000000" stroke="none" 
	d="
M255.057953,232.345078 
	C255.025589,232.525711 254.993210,232.706360 254.872528,233.148026 
	C254.784225,233.409027 254.324753,233.352829 254.164322,233.185974 
	C254.003891,233.019135 253.969345,232.543198 254.252197,232.328278 
	C254.709366,232.190598 254.883667,232.267838 255.057953,232.345078 
z"/>
<path fill="#1B1B3C" opacity="1.000000" stroke="none" 
	d="
M263.574341,226.156189 
	C263.084442,226.372345 262.240570,226.491364 261.212585,226.393463 
	C261.759125,226.137375 262.489716,226.098206 263.574341,226.156189 
z"/>
<path fill="#D7D7DB" opacity="1.000000" stroke="none" 
	d="
M259.168640,230.642822 
	C258.005249,230.437515 256.841858,230.232208 255.315674,230.027313 
	C256.866669,229.748993 258.780426,229.470276 260.590210,229.587021 
	C260.135345,229.992981 259.862488,230.144150 259.667694,230.435989 
	C259.667694,230.435989 259.376617,230.450897 259.282623,230.583374 
	C259.188629,230.715866 259.168640,230.642822 259.168640,230.642822 
z"/>
<path fill="#8E8E97" opacity="1.000000" stroke="none" 
	d="
M255.367096,232.230316 
	C254.883667,232.267838 254.709366,232.190598 254.249969,232.089691 
	C253.720200,231.129181 253.475525,230.192337 253.230865,229.255478 
	C253.616058,229.430908 254.001251,229.606323 254.697510,229.873901 
	C255.231140,230.682571 255.453690,231.399063 255.367096,232.230316 
z"/>
<path fill="#53526B" opacity="1.000000" stroke="none" 
	d="
M259.088501,231.037994 
	C259.168640,230.642822 259.188629,230.715866 259.179626,230.686493 
	C259.502502,231.149902 259.834351,231.642670 260.315491,232.562897 
	C259.979340,232.471313 259.493835,231.952240 259.088501,231.037994 
z"/>
<path fill="#2F2F4D" opacity="1.000000" stroke="none" 
	d="
M259.926147,230.538025 
	C259.862488,230.144150 260.135345,229.992981 260.728790,229.954651 
	C260.709106,230.164566 260.446838,230.402298 259.926147,230.538025 
z"/>
<path fill="#E9EAEC" opacity="1.000000" stroke="none" 
	d="
M206.655304,225.711700 
	C208.849335,228.176346 209.101944,230.483902 206.284729,231.876755 
	C205.539215,232.245346 203.002090,230.895020 202.710541,229.911957 
	C201.904892,227.195541 203.003387,225.230698 206.655304,225.711700 
z"/>
<path fill="#53526B" opacity="1.000000" stroke="none" 
	d="
M261.062805,235.015549 
	C260.003601,234.987366 258.905853,234.936234 257.808105,234.885117 
	C257.830688,234.633408 257.853271,234.381699 257.875854,234.129990 
	C258.809967,234.254272 259.744110,234.378555 260.868256,234.788773 
	C261.058289,235.074707 261.024292,234.992615 261.062805,235.015549 
z"/>
</svg>